        <svg version="1.1" xmlns="http://www.w3.org/2000/svg" xmlns:xlink="http://www.w3.org/1999/xlink" viewBox="0 0 20 20" class="icon-arrow-circle-right">
            <path d="M14.961 9.809a.5.5 0 0 0-.108-.163l-4.5-4.5a.5.5 0 0 0-.707.708L13.293 9.5H5.5a.5.5 0 0 0 0 1h7.793l-3.647 3.646a.5.5 0 1 0 .707.708l4.5-4.5a.5.5 0 0 0 .145-.344L15 10l-.001-.007a.5.5 0 0 0-.038-.184ZM10 0C4.477 0 0 4.477 0 10s4.477 10 10 10c5.52-.006 9.994-4.48 10-10 0-5.523-4.477-10-10-10Zm0 19a9 9 0 1 1 0-18 9.01 9.01 0 0 1 9 9 9 9 0 0 1-9 9Z" fill="currentColor"/>
        </svg>