        <svg version="1.1" xmlns="http://www.w3.org/2000/svg" xmlns:xlink="http://www.w3.org/1999/xlink" viewBox="0 0 20 20" class="icon-log-out">
            <path d="M15 .5a2.5 2.5 0 0 1 2.495 2.336L17.5 3v1a.5.5 0 0 1-.992.09L16.5 4V3a1.5 1.5 0 0 0-1.356-1.493L15 1.5H4a1.5 1.5 0 0 0-1.493 1.356L2.5 3v14a1.5 1.5 0 0 0 1.356 1.493L4 18.5h11.5a1 1 0 0 0 .993-.883l.007-.117V16a.5.5 0 0 1 .992-.09l.008.09v1.5a2 2 0 0 1-1.85 1.995l-.15.005H4a2.5 2.5 0 0 1-2.495-2.336L1.5 17V3A2.5 2.5 0 0 1 3.836.505L4 .5h11Zm-1.716 4.089.07.057 5 5 .011.013a.503.503 0 0 1 .033.039l-.044-.052A.502.502 0 0 1 18.5 10v.02a.503.503 0 0 1-.005.052L18.5 10a.502.502 0 0 1-.089.284l-.013.018a.503.503 0 0 1-.033.04l-.011.012-5 5a.5.5 0 0 1-.765-.638l.057-.07 4.147-4.146H6a.5.5 0 0 1-.09-.992L6 9.5h10.793l-4.147-4.146a.5.5 0 0 1-.057-.638l.057-.07a.5.5 0 0 1 .638-.057Z" fill="currentColor"/>
        </svg>