<svg xmlns="http://www.w3.org/2000/svg" width="24" height="24" viewBox="0 0 24 24">
    <path d="M12 21.75C3.25195 21.75 2.25 20.7481 2.25 12C2.25 3.25195 3.25195 2.25 12 2.25C20.7481 2.25 21.75 3.25195 21.75 12C21.75 20.7481 20.7481 21.75 12 21.75ZM12 3.75C4.05859 3.75 3.75 4.05859 3.75 12C3.75 19.9414 4.05859 20.25 12 20.25C19.9414 20.25 20.25 19.9414 20.25 12C20.25 4.05859 19.9414 3.75 12 3.75Z" fill="currentColor" />
    <path d="M17 8.75H11C10.5859 8.75 10.25 8.41406 10.25 8C10.25 7.58594 10.5859 7.25 11 7.25H17C17.4141 7.25 17.75 7.58594 17.75 8C17.75 8.41406 17.4141 8.75 17 8.75ZM7 8.75C6.7998 8.75 6.60938 8.66992 6.46973 8.53027C6.33008 8.38965 6.25 8.20019 6.25 8C6.25 7.79981 6.33008 7.60938 6.46973 7.46973C6.75 7.18946 7.25 7.18946 7.53028 7.46973C7.66993 7.60938 7.75001 7.79981 7.75001 8C7.75001 8.20019 7.66993 8.38965 7.53028 8.53027C7.38966 8.66992 7.20019 8.75 7 8.75ZM17 12.75H11C10.5859 12.75 10.25 12.4141 10.25 12C10.25 11.5859 10.5859 11.25 11 11.25H17C17.4141 11.25 17.75 11.5859 17.75 12C17.75 12.4141 17.4141 12.75 17 12.75ZM7 12.75C6.89941 12.75 6.7998 12.7295 6.70996 12.6895C6.62012 12.6494 6.54004 12.5996 6.46973 12.5303C6.33008 12.3896 6.25 12.2002 6.25 12C6.25 11.8994 6.26953 11.7998 6.30957 11.71C6.34961 11.6201 6.39941 11.54 6.46973 11.4697C6.74024 11.1895 7.25 11.1895 7.53028 11.4697C7.59962 11.54 7.64942 11.6201 7.68946 11.71C7.7295 11.8096 7.75001 11.8994 7.75001 12C7.75001 12.0996 7.7295 12.2002 7.68946 12.29C7.64942 12.3799 7.59962 12.46 7.53028 12.5303C7.45997 12.5996 7.37989 12.6494 7.29005 12.6895C7.18946 12.7295 7.09961 12.75 7 12.75ZM17 16.75H11C10.5859 16.75 10.25 16.4141 10.25 16C10.25 15.5859 10.5859 15.25 11 15.25H17C17.4141 15.25 17.75 15.5859 17.75 16C17.75 16.4141 17.4141 16.75 17 16.75ZM7 16.75C6.89941 16.75 6.7998 16.7295 6.70996 16.6894C6.62012 16.6601 6.54004 16.5996 6.46973 16.5303C6.33008 16.3896 6.25 16.2002 6.25 16C6.25 15.8994 6.26953 15.8096 6.30957 15.71C6.34961 15.6201 6.39941 15.54 6.46973 15.4697C6.74024 15.1895 7.25 15.1895 7.53028 15.4697C7.59962 15.54 7.64942 15.6201 7.68946 15.71C7.7295 15.8096 7.75001 15.8994 7.75001 16C7.75001 16.2002 7.66993 16.3896 7.53028 16.5303C7.45997 16.5996 7.37989 16.6601 7.29005 16.6894C7.20021 16.7295 7.09961 16.75 7 16.75Z" fill="currentColor" />
</svg>
