<svg xmlns="http://www.w3.org/2000/svg" width="24" height="24" viewBox="0 0 24 24">
    <path d="M11.999 18.75C8.36718 18.75 5.18554 16.5723 3.15625 14.7461C2.04004 13.7412 1.25 12.956 1.25 12C1.25 11.044 2.03906 10.2598 3.15332 9.25586C5.18359 7.42871 8.36719 5.25 11.999 5.25C15.6318 5.25 18.8144 7.42871 20.8438 9.25586C21.96 10.2607 22.75 11.0459 22.75 12.001C22.75 12.9551 21.959 13.7402 20.8418 14.7461C18.8125 16.5723 15.6308 18.75 11.999 18.75ZM11.999 6.75C8.84277 6.75 5.99218 8.71875 4.15722 10.3711C3.66503 10.8135 2.74999 11.6377 2.74999 12C2.74999 12.3623 3.66698 13.1875 4.16015 13.6309C5.99413 15.2822 8.84277 17.25 11.999 17.25C15.1553 17.25 18.0039 15.2822 19.8379 13.6309C20.3311 13.1875 21.25 12.3613 21.25 12.001C21.25 11.6397 20.333 10.8145 19.8398 10.3711C18.0059 8.71876 15.1562 6.75 11.999 6.75Z" fill="currentColor" />
    <path d="M12 14.75C11.8008 14.75 11.6104 14.6709 11.4697 14.5303L10 13.0605L8.53028 14.5303C8.23731 14.8232 7.7627 14.8232 7.46973 14.5303C7.17676 14.2373 7.17676 13.7627 7.46973 13.4697L9.46973 11.4697C9.7627 11.1768 10.2373 11.1768 10.5303 11.4697L12 12.9395L15.3789 9.55957C15.6719 9.2666 16.1465 9.2666 16.4395 9.55957C16.7324 9.85254 16.7324 10.3272 16.4395 10.6201L12.5303 14.5303C12.3897 14.6709 12.1992 14.75 12 14.75Z" fill="currentColor" />
    <path d="M16.6158 12.8975C16.2789 12.8975 15.9723 12.669 15.8883 12.3272L15.8092 12.0059C15.5572 10.987 14.9267 10.4235 13.9176 10.3155L13.5436 10.2744C13.1314 10.2295 12.8346 9.85939 12.8795 9.44826C12.9234 9.03517 13.2955 8.7217 13.7057 8.7842L14.0279 8.81936C16.4195 9.07522 16.6871 9.30862 17.2535 11.5957L17.3453 11.9678C17.444 12.3701 17.1979 12.7764 16.7965 12.876C16.7359 12.8907 16.6754 12.8975 16.6158 12.8975Z" fill="currentColor" />
    <path d="M12.0009 3.75C11.5869 3.75 11.2509 3.41406 11.2509 3V2C11.2509 1.58594 11.5869 1.25 12.0009 1.25C12.415 1.25 12.7509 1.58594 12.7509 2V3C12.7509 3.41406 12.415 3.75 12.0009 3.75ZM7.00095 5.2666C6.75876 5.2666 6.52048 5.14941 6.37595 4.93262L5.82126 4.10157C5.59177 3.75782 5.68454 3.292 6.02927 3.06153C6.37497 2.83204 6.83982 2.92579 7.06931 3.26954L7.624 4.10059C7.85349 4.44434 7.76072 4.91016 7.41599 5.14063C7.28806 5.22559 7.14353 5.2666 7.00095 5.2666ZM16.998 5.2666C16.8554 5.2666 16.7099 5.22558 16.582 5.13965C16.2382 4.91016 16.1455 4.44434 16.3759 4.09961L16.9316 3.26856C17.1611 2.92579 17.6259 2.83008 17.9716 3.06251C18.3154 3.292 18.4082 3.75782 18.1777 4.10255L17.622 4.9336C17.4775 5.14942 17.2402 5.2666 16.998 5.2666ZM12.0009 22.75C11.5869 22.75 11.2509 22.4141 11.2509 22V21C11.2509 20.5859 11.5869 20.25 12.0009 20.25C12.415 20.25 12.7509 20.5859 12.7509 21V22C12.7509 22.4141 12.415 22.75 12.0009 22.75ZM17.5556 21.0644C17.3134 21.0644 17.0761 20.9473 16.9316 20.7314L16.376 19.9004C16.1455 19.5557 16.2383 19.0898 16.582 18.8603C16.9267 18.6279 17.3926 18.7236 17.622 19.0664L18.1777 19.8974C18.4082 20.2422 18.3154 20.708 17.9717 20.9375C17.8437 21.0234 17.6982 21.0644 17.5556 21.0644ZM6.44431 21.0644C6.30173 21.0644 6.1572 21.0234 6.02927 20.9385C5.68454 20.708 5.59177 20.2422 5.82126 19.8984L6.37595 19.0674C6.60544 18.7227 7.07029 18.6299 7.41599 18.8594C7.76072 19.0898 7.85349 19.5557 7.624 19.8994L7.06931 20.7305C6.92478 20.9473 6.6865 21.0644 6.44431 21.0644Z" fill="currentColor" />
</svg>
